<?xml version="1.0" standalone="no"?>
<!DOCTYPE svg PUBLIC "-//W3C//DTD SVG 20010904//EN"
 "http://www.w3.org/TR/2001/REC-SVG-20010904/DTD/svg10.dtd">
<svg version="1.0" xmlns="http://www.w3.org/2000/svg"
 width="256.000000pt" height="256.000000pt" viewBox="0 0 256.000000 256.000000"
 preserveAspectRatio="xMidYMid meet">
<metadata>
Created by potrace 1.14, written by Peter Selinger 2001-2017
</metadata>
<g transform="translate(0.000000,256.000000) scale(0.100000,-0.100000)"
fill="#000000" stroke="none">
<path d="M338 2540 c-161 -50 -282 -177 -323 -337 -13 -51 -15 -177 -12 -944
1 -486 6 -895 10 -909 45 -159 198 -304 357 -339 53 -12 1789 -10 1834 2 160
43 296 178 344 339 11 39 13 1788 2 1838 -16 71 -66 164 -118 218 -41 44 -139
115 -167 122 -5 1 -14 4 -20 5 -78 22 -168 24 -975 24 -812 -1 -879 -2 -932
-19z"/>
</g>
</svg>
