<svg xmlns="http://www.w3.org/2000/svg">
<defs>
<font id="VKSansDisplay-DemiBold" horiz-adv-x="1249" >
  <font-face 
    font-family="VK Sans Display DemiBold"
    font-weight="600"
    font-stretch="normal"
    units-per-em="2048"
    panose-1="0 0 7 0 0 0 0 0 0 0"
    ascent="1638"
    descent="-410"
    x-height="1065"
    cap-height="1444"
    bbox="-811 -420 2304 1886"
    underline-thickness="102"
    underline-position="-409"
    unicode-range="U+000D-F8FF"
  />
<missing-glyph horiz-adv-x="1740" 
d="M774 -20q-126 0 -217.5 102t-126.5 280q-17 85 -22 168q-2 55 -19 117q-23 81 -47 207q-14 71 -14 166q0 20 -7.5 33t-33.5 39q-61 61 -102.5 125.5t-41.5 113.5q0 55 30.5 94t96.5 39q60 0 104.5 -22.5t133.5 -98.5q39 -35 57 -43.5t43 -5.5q99 11 164 11q61 0 168 -15
q29 -4 68.5 9t130.5 55q133 62 196.5 83t108.5 21q88 0 141 -45t53 -115q0 -57 -29.5 -102.5t-119.5 -97.5l-154 -88q-24 -13 -35 -29.5t-14 -50.5q-19 -207 -82 -387q-12 -39 -30 -111q-33 -123 -81 -214t-102.5 -141t-108.5 -73.5t-108 -23.5zM1147 1055q14 0 14 49
q39 0 39 12q0 14 -35 17q6 28 23 55q20 -2 35 -2q24 0 24 10q0 13 -45 18q9 15 27 33q8 8 8 17q0 10 -16 10q-24 0 -60 -51q-28 4 -43 4q-28 0 -28 -13t57 -22q-14 -28 -19 -57q-38 0 -51.5 -3t-13.5 -12q0 -16 63 -16q3 -49 21 -49zM1006 614q55 0 98 47t43 101
q0 48 -9.5 67t-41.5 29q-26 9 -40 22.5t-32 45.5q-9 17 -14.5 25.5t-17 16t-27.5 7.5q-37 0 -84 -84t-47 -154q0 -41 30 -70.5t67.5 -41t74.5 -11.5zM573 709q40 0 66.5 34t26.5 84q0 40 -22.5 73.5t-51.5 33.5q-25 0 -43 -29q-16 -27 -43 -43q-14 -8 -20.5 -13t-13.5 -17.5
t-7 -28.5q0 -37 29.5 -65.5t78.5 -28.5zM1092 406q38 0 38 45q0 40 -38 81q-39 39 -52 39q-4 0 -4 -6q4 -45 4 -98q0 -27 14 -44t38 -17zM772 29q90 0 141.5 47t51.5 121q0 79 -54.5 134.5t-136.5 55.5q-81 0 -132.5 -59.5t-51.5 -143.5q0 -61 53.5 -108t128.5 -47z" />
    <glyph glyph-name=".notdef" horiz-adv-x="1740" 
d="M774 -20q-126 0 -217.5 102t-126.5 280q-17 85 -22 168q-2 55 -19 117q-23 81 -47 207q-14 71 -14 166q0 20 -7.5 33t-33.5 39q-61 61 -102.5 125.5t-41.5 113.5q0 55 30.5 94t96.5 39q60 0 104.5 -22.5t133.5 -98.5q39 -35 57 -43.5t43 -5.5q99 11 164 11q61 0 168 -15
q29 -4 68.5 9t130.5 55q133 62 196.5 83t108.5 21q88 0 141 -45t53 -115q0 -57 -29.5 -102.5t-119.5 -97.5l-154 -88q-24 -13 -35 -29.5t-14 -50.5q-19 -207 -82 -387q-12 -39 -30 -111q-33 -123 -81 -214t-102.5 -141t-108.5 -73.5t-108 -23.5zM1147 1055q14 0 14 49
q39 0 39 12q0 14 -35 17q6 28 23 55q20 -2 35 -2q24 0 24 10q0 13 -45 18q9 15 27 33q8 8 8 17q0 10 -16 10q-24 0 -60 -51q-28 4 -43 4q-28 0 -28 -13t57 -22q-14 -28 -19 -57q-38 0 -51.5 -3t-13.5 -12q0 -16 63 -16q3 -49 21 -49zM1006 614q55 0 98 47t43 101
q0 48 -9.5 67t-41.5 29q-26 9 -40 22.5t-32 45.5q-9 17 -14.5 25.5t-17 16t-27.5 7.5q-37 0 -84 -84t-47 -154q0 -41 30 -70.5t67.5 -41t74.5 -11.5zM573 709q40 0 66.5 34t26.5 84q0 40 -22.5 73.5t-51.5 33.5q-25 0 -43 -29q-16 -27 -43 -43q-14 -8 -20.5 -13t-13.5 -17.5
t-7 -28.5q0 -37 29.5 -65.5t78.5 -28.5zM1092 406q38 0 38 45q0 40 -38 81q-39 39 -52 39q-4 0 -4 -6q4 -45 4 -98q0 -27 14 -44t38 -17zM772 29q90 0 141.5 47t51.5 121q0 79 -54.5 134.5t-136.5 55.5q-81 0 -132.5 -59.5t-51.5 -143.5q0 -61 53.5 -108t128.5 -47z" />
    <glyph glyph-name=".null" horiz-adv-x="1228" 
 />
    <glyph glyph-name="nonmarkingreturn" horiz-adv-x="682" 
 />
    <glyph glyph-name="CR" unicode="&#xd;" horiz-adv-x="1228" 
 />
    <glyph glyph-name="space" unicode=" " horiz-adv-x="491" 
 />
    <glyph glyph-name="exclam" unicode="!" horiz-adv-x="577" 
d="M375 451h-172l-31 612v381h234v-381zM289 -20q-63 0 -104.5 41.5t-41.5 101.5q0 62 41.5 103.5t104.5 41.5q61 0 103 -42t42 -103q0 -60 -42 -101.5t-103 -41.5z" />
    <glyph glyph-name="quotedbl" unicode="&#x22;" horiz-adv-x="770" 
d="M305 958h-172l-20 486h213zM637 958h-172l-21 486h213z" />
    <glyph glyph-name="numbersign" unicode="#" horiz-adv-x="1492" 
d="M436 0h-198l79 371h-225l39 184h225l70 334h-223l39 184h223l80 371h198l-79 -371h313l80 371h198l-79 -371h225l-39 -184h-225l-70 -334h223l-39 -184h-223l-80 -371h-198l79 371h-313zM625 889l-70 -334h313l70 334h-313z" />
    <glyph glyph-name="dollar" unicode="$" horiz-adv-x="1167" 
d="M659 829q43 -15 66 -23.5t64 -25t64.5 -29.5t58 -34t54.5 -41t43.5 -48.5t36 -58.5t21 -68t8.5 -81q0 -160 -106.5 -263.5t-274.5 -129.5v-232h-184v232q-164 23 -284.5 127t-164.5 264l238 41q56 -109 124 -161t175 -52q101 0 163 44t62 118q0 28 -9 51.5t-31 43.5
t-41.5 33.5t-59 30.5t-63 25.5t-72.5 25.5q-163 58 -233 101q-174 104 -183 290v21q0 165 106 268t273 121v230h184v-238q138 -27 236.5 -120t144.5 -236l-233 -39q-81 182 -258 182q-86 0 -143.5 -41.5t-57.5 -112.5q0 -34 16 -63t37.5 -48.5t63.5 -40t72.5 -32.5t86.5 -31
z" />
    <glyph glyph-name="percent" unicode="%" horiz-adv-x="1728" 
d="M438 770q-157 0 -256.5 97t-99.5 251q0 152 99.5 249t256.5 97q154 0 254.5 -97t100.5 -249q0 -153 -99.5 -250.5t-255.5 -97.5zM528 0h-217l891 1444h217zM438 944q75 0 122.5 48.5t47.5 125.5q0 76 -47.5 124t-122.5 48q-76 0 -124 -48t-48 -124q0 -77 48 -125.5
t124 -48.5zM1292 -20q-157 0 -256.5 97t-99.5 251q0 152 99.5 249t256.5 97q154 0 254.5 -97t100.5 -249q0 -153 -99.5 -250.5t-255.5 -97.5zM1292 154q75 0 122.5 48.5t47.5 125.5q0 76 -47.5 124t-122.5 48q-76 0 -124 -48t-48 -124q0 -77 48 -125.5t124 -48.5z" />
    <glyph glyph-name="ampersand" unicode="&#x26;" horiz-adv-x="1503" 
d="M1128 346l345 -344h-312l-188 191q-242 -211 -461 -211q-182 0 -301 107.5t-119 275.5q0 106 66 197t239 194l11 6l-2 2q-95 95 -137 171.5t-42 164.5q0 154 110.5 255t280.5 101q168 0 278 -99t110 -251q0 -89 -57 -172.5t-208 -179.5l-12 -9l256 -253q39 44 184 227
h265q-171 -227 -306 -373zM616 1262q-76 0 -125 -43t-49 -111q0 -48 26.5 -87.5t92.5 -105.5l39 -38q99 61 145 112.5t46 114.5q0 69 -49.5 113.5t-125.5 44.5zM549 197q136 0 285 137l-293 293l-17 -11q-190 -119 -190 -241q0 -78 60 -128t155 -50z" />
    <glyph glyph-name="quotesingle" unicode="'" horiz-adv-x="438" 
d="M305 958h-172l-20 486h213z" />
    <glyph glyph-name="parenleft" unicode="(" horiz-adv-x="679" 
d="M649 -420h-237q-147 192 -233.5 437.5t-86.5 521.5q0 277 86 520t234 436h237q-144 -191 -227.5 -436t-83.5 -520q0 -274 84 -521.5t227 -437.5z" />
    <glyph glyph-name="parenright" unicode=")" horiz-adv-x="679" 
d="M268 -420h-237q143 190 227 437.5t84 521.5q0 275 -83.5 520t-227.5 436h237q148 -193 234 -436t86 -520q0 -276 -86.5 -521.5t-233.5 -437.5z" />
    <glyph glyph-name="asterisk" unicode="*" horiz-adv-x="919" 
d="M459 926l-135 -219l-168 114l186 203l-270 68l61 188l246 -98l-19 262h199l-20 -262l247 98l62 -188l-270 -68l186 -203l-168 -114z" />
    <glyph glyph-name="plus" unicode="+" 
d="M727 203h-205v389h-389v205h389v389h205v-389h389v-205h-389v-389z" />
    <glyph glyph-name="comma" unicode="," horiz-adv-x="557" 
d="M287 -240h-189l82 486h230z" />
    <glyph glyph-name="hyphen" unicode="-" horiz-adv-x="874" 
d="M762 467h-649v221h649v-221z" />
    <glyph glyph-name="period" unicode="." horiz-adv-x="557" 
d="M279 -20q-63 0 -104.5 41.5t-41.5 101.5q0 62 41.5 103.5t104.5 41.5q61 0 103 -42t42 -103q0 -60 -42 -101.5t-103 -41.5z" />
    <glyph glyph-name="slash" unicode="/" horiz-adv-x="829" 
d="M236 -410h-236l594 1905h235z" />
    <glyph glyph-name="zero" unicode="0" horiz-adv-x="1351" 
d="M676 -16q-260 0 -422 204t-162 533t162 533t422 204t422 -204t162 -533t-162 -533t-422 -204zM676 209q148 0 238 139.5t90 372.5t-90 372.5t-238 139.5t-238 -139.5t-90 -372.5t90 -372.5t238 -139.5z" />
    <glyph glyph-name="one" unicode="1" horiz-adv-x="774" 
d="M580 0h-246v1049h-283v225h201q38 0 60 22t22 60v88h246v-1444z" />
    <glyph glyph-name="two" unicode="2" horiz-adv-x="1150" 
d="M1059 0h-961v281l541 483q154 138 154 270q0 92 -59.5 148.5t-155.5 56.5q-99 0 -161 -63t-104 -172l-231 38q54 191 184 306.5t324 115.5q199 0 329 -121t130 -307q0 -124 -62.5 -222.5t-193.5 -215.5l-381 -338v-33l647 6v-233z" />
    <glyph glyph-name="three" unicode="3" horiz-adv-x="1146" 
d="M811 750q48 -17 89.5 -44.5t77.5 -68.5t56.5 -99.5t20.5 -127.5q0 -189 -139.5 -309.5t-356.5 -120.5q-200 0 -342.5 108t-185.5 285l235 39q48 -104 118.5 -155.5t172.5 -51.5q113 0 183.5 60t70.5 155q0 93 -70.5 151t-185.5 58h-160v215h160q103 0 168 54.5t65 143.5
q0 88 -64 142.5t-165 54.5q-90 0 -156 -49t-106 -137l-231 39q63 182 191.5 277t307.5 95q205 0 337 -112.5t132 -286.5q0 -118 -62.5 -199t-160.5 -116z" />
    <glyph glyph-name="four" unicode="4" horiz-adv-x="1220" 
d="M995 0h-235v295h-699v233l582 916h352v-924h185v-225h-185v-295zM727 1194l-414 -674h447v674h-33z" />
    <glyph glyph-name="five" unicode="5" horiz-adv-x="1247" 
d="M684 975q206 0 338.5 -139.5t132.5 -356.5q0 -221 -144.5 -360t-373.5 -139q-196 0 -338.5 108.5t-185.5 284.5l235 39q87 -207 283 -207q121 0 196.5 76t75.5 198q0 120 -72.5 195.5t-189.5 75.5q-81 0 -146 -34.5t-106 -90.5h-235l84 819h849v-225h-643l-32 -326
q116 82 272 82z" />
    <glyph glyph-name="six" unicode="6" horiz-adv-x="1230" 
d="M664 969q217 0 356 -137t139 -349q0 -221 -152.5 -362t-390.5 -141q-242 0 -393 135t-151 360q0 221 161 461l345 508h286l-334 -490q68 15 134 15zM616 205q129 0 210 75.5t81 198.5q0 122 -81 198.5t-210 76.5q-130 0 -211 -76.5t-81 -198.5q0 -123 80.5 -198.5
t211.5 -75.5z" />
    <glyph glyph-name="seven" unicode="7" horiz-adv-x="1118" 
d="M479 0h-270l551 1176v32h-740v236h1016v-256z" />
    <glyph glyph-name="eight" unicode="8" horiz-adv-x="1253" 
d="M926 741q106 -37 170.5 -122.5t64.5 -210.5q0 -188 -149.5 -308t-384.5 -120t-385 120t-150 308q0 125 64.5 210.5t169.5 122.5q-83 42 -138 121t-55 193q0 180 138.5 293.5t355.5 113.5t355 -113.5t138 -293.5q0 -114 -55 -193.5t-139 -120.5zM627 1237
q-110 0 -179 -54.5t-69 -142.5q0 -89 68.5 -143.5t179.5 -54.5t179 54.5t68 143.5q0 88 -68.5 142.5t-178.5 54.5zM627 205q126 0 204 61t78 158t-78 157t-204 60t-204.5 -60t-78.5 -157t78.5 -158t204.5 -61z" />
    <glyph glyph-name="nine" unicode="9" horiz-adv-x="1230" 
d="M614 1464q242 0 393.5 -135t151.5 -360q0 -220 -162 -461l-344 -508h-286l333 489q-63 -14 -133 -14q-217 0 -356 137t-139 349q0 221 152 362t390 141zM614 690q130 0 211.5 76.5t81.5 198.5q0 123 -81 198.5t-212 75.5q-129 0 -209.5 -75.5t-80.5 -198.5
q0 -122 80.5 -198.5t209.5 -76.5z" />
    <glyph glyph-name="colon" unicode=":" horiz-adv-x="557" 
d="M279 797q-63 0 -104.5 41.5t-41.5 101.5q0 62 41.5 103.5t104.5 41.5q61 0 103 -41.5t42 -103.5q0 -60 -42 -101.5t-103 -41.5zM279 -20q-63 0 -104.5 41.5t-41.5 101.5q0 62 41.5 103.5t104.5 41.5q61 0 103 -42t42 -103q0 -60 -42 -101.5t-103 -41.5z" />
    <glyph glyph-name="semicolon" unicode=";" horiz-adv-x="557" 
d="M279 797q-63 0 -104.5 41.5t-41.5 101.5q0 62 41.5 103.5t104.5 41.5q61 0 103 -41.5t42 -103.5q0 -60 -42 -101.5t-103 -41.5zM287 -240h-189l82 486h230z" />
    <glyph glyph-name="less" unicode="&#x3c;" 
d="M1096 381v-227l-942 417v246l942 418v-229l-701 -301v-23z" />
    <glyph glyph-name="equal" unicode="=" 
d="M1116 797h-983v204h983v-204zM1116 387h-983v205h983v-205z" />
    <glyph glyph-name="greater" unicode="&#x3e;" 
d="M1096 571l-942 -417v227l700 301v23l-700 301v229l942 -418v-246z" />
    <glyph glyph-name="question" unicode="?" horiz-adv-x="1042" 
d="M600 451h-225v79q0 69 12 119.5t37.5 87t51.5 59.5t69 50q99 65 136.5 119t37.5 106q0 72 -54 120t-147 48q-164 0 -244 -164l-233 39q59 169 186 259.5t295 90.5q196 0 322.5 -112t126.5 -271q0 -202 -232 -356q-74 -48 -106.5 -89.5t-32.5 -105.5v-79zM487 -20
q-63 0 -104 41t-41 102q0 62 41 103.5t104 41.5q62 0 104 -42t42 -103q0 -60 -42.5 -101.5t-103.5 -41.5z" />
    <glyph glyph-name="at" unicode="@" horiz-adv-x="1912" 
d="M958 -276q-183 0 -341.5 63t-268.5 173t-172.5 262t-62.5 325q0 172 65.5 323t178.5 259t272.5 170.5t341.5 62.5q235 0 427.5 -100t302 -275t109.5 -389q0 -207 -99 -340t-253 -133q-82 0 -148 41.5t-93 130.5q-100 -172 -306 -172q-171 0 -280 113.5t-109 291.5
t109.5 292t279.5 114q177 0 275 -129l26 108h150v-475q0 -75 30.5 -118t84.5 -43q70 0 112.5 79.5t42.5 208.5q0 181 -85.5 325.5t-237.5 225t-342 80.5q-192 0 -345 -83t-239 -230.5t-86 -331.5q0 -189 83.5 -340.5t237 -238.5t349.5 -87q258 0 397 109l221 -37
q-98 -107 -260.5 -171t-366.5 -64zM950 299q101 0 164.5 64t63.5 167t-63.5 167.5t-164.5 64.5q-100 0 -161.5 -64.5t-61.5 -167.5t61.5 -167t161.5 -64z" />
    <glyph glyph-name="A" unicode="A" horiz-adv-x="1468" 
d="M1448 0h-262l-111 309h-684l-115 -309h-256l553 1444h338zM719 1190l-244 -655h520l-235 655h-41z" />
    <glyph glyph-name="B" unicode="B" horiz-adv-x="1320" 
d="M979 741q117 -34 183.5 -123t66.5 -215q0 -180 -130 -291.5t-341 -111.5h-604v1444h563q208 0 338.5 -110t130.5 -283q0 -109 -55.5 -191t-151.5 -119zM717 1229h-318v-395h318q98 0 159.5 54t61.5 142q0 89 -61.5 144t-159.5 55zM399 215h359q97 0 158 56.5t61 146.5
q0 89 -61 144.5t-158 55.5h-359v-403z" />
    <glyph glyph-name="C" unicode="C" horiz-adv-x="1495" 
d="M793 -20q-153 0 -285.5 55.5t-226 153t-146.5 236t-53 298.5q0 213 91 382.5t253.5 264t366.5 94.5q224 0 395.5 -111.5t245.5 -305.5l-244 -41q-53 110 -155 171.5t-234 61.5q-204 0 -333.5 -144t-129.5 -372q0 -230 128.5 -374t334.5 -144q134 0 239.5 64.5
t159.5 179.5l244 -41q-77 -197 -252.5 -312.5t-398.5 -115.5z" />
    <glyph glyph-name="D" unicode="D" horiz-adv-x="1536" 
d="M705 0h-551v1444h551q216 0 387 -91.5t266.5 -256.5t95.5 -373q0 -209 -95.5 -374t-266.5 -257t-387 -92zM399 1219v-994h306q220 0 356.5 138.5t136.5 359.5q0 220 -137 358t-356 138h-306z" />
    <glyph glyph-name="E" unicode="E" horiz-adv-x="1230" 
d="M1118 0h-964v1444h944v-225h-699v-383h633v-215h-633v-396h719v-225z" />
    <glyph glyph-name="F" unicode="F" horiz-adv-x="1169" 
d="M399 0h-245v1444h923v-225h-678v-414h613v-225h-613v-580z" />
    <glyph glyph-name="G" unicode="G" horiz-adv-x="1579" 
d="M805 555v215h713v-47q0 -216 -87.5 -385t-249 -263.5t-370.5 -94.5q-157 0 -292.5 55t-231.5 152.5t-150.5 236t-54.5 299.5t53.5 298.5t147 235t226.5 152.5t288 55q224 0 395.5 -112t245.5 -305l-244 -41q-126 233 -391 233q-207 0 -336 -143.5t-129 -372.5
t132.5 -373.5t340.5 -144.5q165 0 280.5 94.5t157.5 255.5h-444z" />
    <glyph glyph-name="H" unicode="H" horiz-adv-x="1484" 
d="M1085 842v602h246v-1444h-246v616h-686v-616h-245v1444h245v-602h686z" />
    <glyph glyph-name="I" unicode="I" horiz-adv-x="573" 
d="M410 0h-246v1444h246v-1444z" />
    <glyph glyph-name="J" unicode="J" horiz-adv-x="819" 
d="M244 0h-193l-20 225h213q91 0 138.5 57t47.5 164v998h246v-998q0 -212 -113 -329t-319 -117z" />
    <glyph glyph-name="K" unicode="K" horiz-adv-x="1325" 
d="M662 748l663 -748h-324l-540 618h-62v-618h-245v1444h245v-588h60l512 588h303z" />
    <glyph glyph-name="L" unicode="L" horiz-adv-x="1128" 
d="M1098 0h-944v1444h245v-1219h699v-225z" />
    <glyph glyph-name="M" unicode="M" horiz-adv-x="1896" 
d="M393 0h-239v1444h385l393 -1092h33l401 1092h377v-1444h-240v1116h-33l-411 -1116h-230l-403 1116h-33v-1116z" />
    <glyph glyph-name="N" unicode="N" horiz-adv-x="1581" 
d="M393 0h-239v1444h370l631 -1147h33v1147h239v-1444h-370l-631 1147h-33v-1147z" />
    <glyph glyph-name="O" unicode="O" horiz-adv-x="1638" 
d="M819 -20q-213 0 -381.5 94.5t-262 264t-93.5 384.5q0 161 55 298.5t151.5 235t233.5 152.5t297 55t297 -55t233.5 -152.5t151.5 -235t55 -298.5q0 -215 -93.5 -384.5t-262 -264t-381.5 -94.5zM819 205q214 0 347.5 144t133.5 374q0 229 -133.5 372.5t-347.5 143.5
t-347.5 -143.5t-133.5 -372.5q0 -230 133.5 -374t347.5 -144z" />
    <glyph glyph-name="P" unicode="P" horiz-adv-x="1239" 
d="M399 0h-245v1444h512q226 0 374 -137t148 -351q0 -213 -148.5 -350t-373.5 -137h-267v-469zM399 1219v-525h267q120 0 195 72.5t75 189.5t-75 190t-195 73h-267z" />
    <glyph glyph-name="Q" unicode="Q" horiz-adv-x="1638" 
d="M1556 723q0 -198 -81 -359.5t-224 -259.5l205 -311h-268l-144 217q-105 -30 -225 -30q-213 0 -381.5 94.5t-262 264t-93.5 384.5q0 161 55 298.5t151.5 235t233.5 152.5t297 55t297 -55t233.5 -152.5t151.5 -235t55 -298.5zM819 205q53 0 92 8l-206 313h268l145 -221
q87 68 134.5 176t47.5 242q0 229 -133.5 372.5t-347.5 143.5t-347.5 -143.5t-133.5 -372.5q0 -230 133.5 -374t347.5 -144z" />
    <glyph glyph-name="R" unicode="R" horiz-adv-x="1314" 
d="M842 549l401 -549h-289l-381 530h-174v-530h-245v1444h532q224 0 368 -128t144 -329q0 -161 -96.5 -278.5t-259.5 -159.5zM686 1219h-287v-463h287q116 0 188 64t72 167t-72.5 167.5t-187.5 64.5z" />
    <glyph glyph-name="S" unicode="S" horiz-adv-x="1208" 
d="M618 -20q-201 0 -353 107.5t-204 289.5l238 41q60 -109 133.5 -161t188.5 -52q107 0 175 48t68 132q0 38 -17 70t-40.5 53t-68 42.5t-77.5 34t-92 31.5q-45 15 -69.5 23.5t-67 25.5t-68 30.5t-61 35.5t-57 43.5t-46.5 52t-38 63.5t-22 75.5t-9 89.5q0 188 134 298.5
t337 110.5q188 0 323 -98.5t191 -269.5l-233 -39q-81 182 -273 182q-97 0 -162 -45.5t-65 -126.5q0 -27 8.5 -51t21.5 -42t37 -35.5t45 -29.5t56 -26.5t60 -23.5t67 -23q44 -15 69 -24t67.5 -26.5t68 -31.5t61 -36.5t57.5 -44t46 -52.5t37.5 -64t22.5 -75t9 -89
q0 -125 -68 -220.5t-180.5 -144t-249.5 -48.5z" />
    <glyph glyph-name="T" unicode="T" horiz-adv-x="1269" 
d="M758 0h-246v1219h-492v225h1229v-225h-491v-1219z" />
    <glyph glyph-name="U" unicode="U" horiz-adv-x="1433" 
d="M715 -20q-255 0 -418.5 165t-163.5 424v875h246v-875q0 -162 93.5 -263t242.5 -101q151 0 245.5 101t94.5 263v875h245v-875q0 -259 -164 -424t-421 -165z" />
    <glyph glyph-name="V" unicode="V" horiz-adv-x="1435" 
d="M889 0h-359l-510 1444h265l407 -1190h41l422 1190h260z" />
    <glyph glyph-name="W" unicode="W" horiz-adv-x="2078" 
d="M754 0h-375l-359 1444h254l289 -1190h33l305 1190h270l291 -1190h33l313 1190h250l-383 -1444h-379l-247 1040h-33z" />
    <glyph glyph-name="X" unicode="X" horiz-adv-x="1341" 
d="M305 0h-285l467 739l-426 705h291l303 -529h33l318 529h284l-432 -692l463 -752h-289l-338 573h-32z" />
    <glyph glyph-name="Y" unicode="Y" horiz-adv-x="1325" 
d="M776 0h-246v418l-530 1026h272l365 -723h41l379 723h268l-549 -1026v-418z" />
    <glyph glyph-name="Z" unicode="Z" horiz-adv-x="1290" 
d="M1198 0h-1096v276l795 900v32h-774v236h1065v-277l-795 -899v-32h805v-236z" />
    <glyph glyph-name="bracketleft" unicode="[" horiz-adv-x="665" 
d="M635 -420h-481v1915h481v-215h-250v-1485h250v-215z" />
    <glyph glyph-name="backslash" unicode="\" horiz-adv-x="829" 
d="M829 -410h-235l-594 1905h236z" />
    <glyph glyph-name="bracketright" unicode="]" horiz-adv-x="665" 
d="M512 -420h-481v215h250v1485h-250v215h481v-1915z" />
    <glyph glyph-name="asciicircum" unicode="^" horiz-adv-x="1019" 
d="M293 778h-221l315 666h246l315 -666h-223l-201 436h-32z" />
    <glyph glyph-name="underscore" unicode="_" horiz-adv-x="1015" 
d="M1026 -420h-1036v205h1036v-205z" />
    <glyph glyph-name="a" unicode="a" horiz-adv-x="1130" 
d="M567 1085q205 0 323 -128.5t118 -358.5v-598h-174l-50 168q-44 -76 -133 -132t-209 -56q-163 0 -266.5 95t-103.5 244q0 153 120.5 243.5t348.5 90.5h229q-8 106 -64 169t-151 63q-75 0 -130.5 -36.5t-82.5 -90.5l-217 37q39 135 161 212.5t281 77.5zM498 178
q123 0 198.5 80t75.5 211h-223q-240 0 -240 -139q0 -69 51.5 -110.5t137.5 -41.5z" />
    <glyph glyph-name="b" unicode="b" horiz-adv-x="1363" 
d="M772 -20q-133 0 -235 55.5t-168 136.5l-50 -172h-176v1444h236v-541q65 77 165 129.5t228 52.5q228 0 374 -155.5t146 -397.5t-146 -397t-374 -155zM715 190q147 0 239.5 95.5t92.5 246.5t-92.5 246.5t-239.5 95.5q-149 0 -242.5 -95.5t-93.5 -246.5t93.5 -246.5
t242.5 -95.5z" />
    <glyph glyph-name="c" unicode="c" horiz-adv-x="1171" 
d="M627 -20q-244 0 -399.5 155t-155.5 397t155.5 397.5t399.5 155.5q175 0 312 -86.5t194 -246.5l-222 -37q-34 70 -106.5 112.5t-163.5 42.5q-143 0 -233.5 -94.5t-90.5 -243.5t90.5 -243t233.5 -94q94 0 168.5 43.5t110.5 115.5l221 -37q-58 -162 -199 -249.5t-315 -87.5z
" />
    <glyph glyph-name="d" unicode="d" horiz-adv-x="1363" 
d="M592 -20q-228 0 -374 155t-146 397t146 397.5t374 155.5q128 0 228 -52.5t165 -129.5v541h236v-1444h-177l-49 172q-66 -81 -168 -136.5t-235 -55.5zM649 190q149 0 242.5 95.5t93.5 246.5t-93.5 246.5t-242.5 95.5q-147 0 -239.5 -95.5t-92.5 -246.5t92.5 -246.5
t239.5 -95.5z" />
    <glyph glyph-name="e" unicode="e" horiz-adv-x="1228" 
d="M1178 545q0 -30 -4 -76h-857q18 -125 103.5 -199.5t218.5 -74.5q91 0 162.5 35t111.5 94l222 -37q-58 -147 -197.5 -227t-312.5 -80q-243 0 -398 155t-155 397t155 397.5t398 155.5q241 0 397 -154t156 -386zM625 881q-106 0 -184.5 -62t-108.5 -166h590
q-30 102 -109.5 165t-187.5 63z" />
    <glyph glyph-name="f" unicode="f" horiz-adv-x="778" 
d="M440 1120v-55h318v-205h-318v-860h-235v860h-174v205h174v55q0 157 91 240.5t263 83.5h199l20 -205h-219q-119 0 -119 -119z" />
    <glyph glyph-name="g" unicode="g" horiz-adv-x="1314" 
d="M618 -420q-182 0 -322 87t-198 241l232 39q92 -152 291 -152q66 0 122 18t103 55t73.5 103t26.5 154v96q-61 -80 -156 -126t-217 -46q-220 0 -360.5 145.5t-140.5 372.5t140.5 372.5t360.5 145.5q128 0 226 -50t157 -138l50 168h176v-942q0 -131 -45.5 -236t-123.5 -171
t-179 -101t-216 -35zM631 260q140 0 227.5 85.5t87.5 221.5t-87.5 221.5t-227.5 85.5t-227 -85.5t-87 -221.5t87 -221.5t227 -85.5z" />
    <glyph glyph-name="h" unicode="h" horiz-adv-x="1214" 
d="M379 0h-236v1444h236v-518q52 75 133.5 117t173.5 42q174 0 290 -125.5t116 -316.5v-643h-236v616q0 114 -65 186t-168 72q-106 0 -175 -72.5t-69 -185.5v-616z" />
    <glyph glyph-name="i" unicode="i" horiz-adv-x="522" 
d="M262 1217q-65 0 -106 40t-41 103t41.5 104t105.5 41q63 0 104.5 -41t41.5 -104t-41.5 -103t-104.5 -40zM379 0h-236v1065h236v-1065z" />
    <glyph glyph-name="j" unicode="j" horiz-adv-x="532" 
d="M283 1217q-65 0 -106.5 40t-41.5 103t42 104t106 41q63 0 104 -41t41 -104t-41 -103t-104 -40zM45 -420h-178l-21 215h199q119 0 119 119v1151h235v-1161q0 -157 -90.5 -240.5t-263.5 -83.5z" />
    <glyph glyph-name="k" unicode="k" horiz-adv-x="1114" 
d="M1114 0h-309l-369 424h-57v-424h-236v1444h236v-793h57l357 414h280l-448 -512z" />
    <glyph glyph-name="l" unicode="l" horiz-adv-x="522" 
d="M379 0h-236v1444h236v-1444z" />
    <glyph glyph-name="m" unicode="m" horiz-adv-x="1798" 
d="M369 0h-236v1065h176l43 -152q43 75 118.5 123.5t182.5 48.5t191.5 -51.5t124.5 -140.5q39 80 124 136t201 56q167 0 274 -123t107 -315v-647h-235v625q0 109 -57.5 179t-149.5 70t-151.5 -70t-59.5 -179v-625h-236v625q0 109 -57 179t-149 70t-151.5 -70t-59.5 -179
v-625z" />
    <glyph glyph-name="n" unicode="n" horiz-adv-x="1204" 
d="M369 0h-236v1065h176l47 -160q51 84 136 132t184 48q174 0 289.5 -125.5t115.5 -316.5v-643h-235v616q0 114 -65.5 186t-168.5 72q-106 0 -174.5 -72t-68.5 -186v-616z" />
    <glyph glyph-name="o" unicode="o" horiz-adv-x="1282" 
d="M641 -20q-250 0 -409.5 154.5t-159.5 397.5t159.5 398t409.5 155t409.5 -155t159.5 -398t-159.5 -397.5t-409.5 -154.5zM641 195q145 0 234.5 93t89.5 244t-89.5 244.5t-234.5 93.5t-234.5 -93.5t-89.5 -244.5t89.5 -244t234.5 -93z" />
    <glyph glyph-name="p" unicode="p" horiz-adv-x="1353" 
d="M369 -420h-236v1485h176l49 -172q66 80 168.5 136t235.5 56q228 0 374 -155.5t146 -397.5t-146 -397t-374 -155q-128 0 -228 52.5t-165 129.5v-582zM705 190q147 0 239 95.5t92 246.5t-92 246.5t-239 95.5q-149 0 -242.5 -95.5t-93.5 -246.5t93.5 -246.5t242.5 -95.5z
" />
    <glyph glyph-name="q" unicode="q" horiz-adv-x="1353" 
d="M1221 -420h-236v582q-65 -77 -165 -129.5t-228 -52.5q-228 0 -374 155t-146 397t146 397.5t374 155.5q133 0 235 -55.5t168 -136.5l49 172h177v-1485zM649 190q149 0 242.5 95.5t93.5 246.5t-93.5 246.5t-242.5 95.5q-147 0 -239.5 -95.5t-92.5 -246.5t92.5 -246.5
t239.5 -95.5z" />
    <glyph glyph-name="r" unicode="r" horiz-adv-x="733" 
d="M369 0h-236v1065h176l45 -154q52 85 122.5 119.5t170.5 34.5h45l21 -225h-135q-209 0 -209 -211v-629z" />
    <glyph glyph-name="s" unicode="s" horiz-adv-x="1042" 
d="M516 -20q-180 0 -300.5 85t-154.5 234l228 39q26 -75 90.5 -116.5t155.5 -41.5q78 0 131 29t53 88q0 24 -13 44t-30.5 33t-51.5 26.5t-59 21.5t-71 20q-47 13 -75 21.5t-72.5 25.5t-72 32.5t-60.5 41.5t-51.5 54.5t-31 68.5t-12.5 86q0 77 33 138t89.5 98.5t129 57
t155.5 19.5q157 0 272 -81.5t160 -221.5l-219 -37q-30 67 -84 103.5t-127 36.5q-70 0 -118 -28.5t-48 -78.5q0 -25 13.5 -46t31.5 -35t54 -28.5t61.5 -22.5t73.5 -21q44 -12 74 -21.5t71.5 -26t69.5 -33t58.5 -41t49 -52.5t30.5 -66t12 -82q0 -138 -114 -230.5t-331 -92.5z
" />
    <glyph glyph-name="t" unicode="t" horiz-adv-x="819" 
d="M549 205h219l-20 -205h-199q-174 0 -264 83t-90 241v536h-175v205h175l59 307h176v-307h318v-205h-318v-536q0 -119 119 -119z" />
    <glyph glyph-name="u" unicode="u" horiz-adv-x="1193" 
d="M522 -20q-171 0 -285 125.5t-114 316.5v643h235v-616q0 -114 64.5 -186.5t165.5 -72.5q103 0 170 72.5t67 186.5v616h236v-1065h-176l-47 160q-51 -85 -135 -132.5t-181 -47.5z" />
    <glyph glyph-name="v" unicode="v" horiz-adv-x="1150" 
d="M733 0h-323l-390 1065h250l285 -807h41l293 807h241z" />
    <glyph glyph-name="w" unicode="w" horiz-adv-x="1689" 
d="M651 0h-344l-287 1065h242l215 -829h33l219 829h242l219 -829h33l213 829h233l-283 -1065h-342l-180 696h-33z" />
    <glyph glyph-name="x" unicode="x" horiz-adv-x="1062" 
d="M272 0h-266l338 545l-299 520h266l199 -358h39l209 358h260l-299 -506l338 -559h-275l-227 403h-39z" />
    <glyph glyph-name="y" unicode="y" horiz-adv-x="1171" 
d="M618 297l273 768h239l-436 -1198q-55 -151 -142 -219t-233 -68h-161l-21 215h199q58 0 90 25t55 90l13 33l-474 1122h252l314 -768h32z" />
    <glyph glyph-name="z" unicode="z" horiz-adv-x="1044" 
d="M973 0h-891v250l596 571v33h-576v211h861v-250l-596 -571v-33h606v-211z" />
    <glyph glyph-name="braceleft" unicode="{" horiz-adv-x="702" 
d="M672 -420h-111q-167 0 -252.5 81t-85.5 239v389q0 72 -35.5 106.5t-126.5 34.5v215q91 0 126.5 34.5t35.5 104.5v392q0 158 85.5 238.5t252.5 80.5h111v-215h-111q-54 0 -78 -24.5t-24 -79.5v-392q0 -107 -44.5 -158t-133.5 -71v-33q90 -20 134 -72t44 -161v-389
q0 -56 24 -80.5t78 -24.5h111v-215z" />
    <glyph glyph-name="bar" unicode="|" horiz-adv-x="655" 
d="M440 -420h-225v1915h225v-1915z" />
    <glyph glyph-name="braceright" unicode="}" horiz-adv-x="702" 
d="M141 -420h-110v215h110q54 0 78.5 25t24.5 80v389q0 109 44 161t134 72v33q-89 20 -133.5 71t-44.5 158v392q0 55 -24.5 79.5t-78.5 24.5h-110v215h110q167 0 252.5 -80.5t85.5 -238.5v-392q0 -70 35.5 -104.5t126.5 -34.5v-215q-91 0 -126.5 -34.5t-35.5 -106.5v-389
q0 -158 -85.5 -239t-252.5 -81z" />
    <glyph glyph-name="asciitilde" unicode="~" 
d="M823 510q-60 0 -110 17t-84 41t-63.5 48t-60.5 41t-63 17q-58 0 -91.5 -41t-33.5 -113h-211q0 170 84 264.5t236 94.5q60 0 110 -17t84 -41t63 -48t60 -41t62 -17q60 0 93.5 40.5t33.5 112.5h211q0 -169 -84.5 -263.5t-235.5 -94.5z" />
    <glyph glyph-name="uni00A0" unicode="&#xa0;" horiz-adv-x="491" 
 />
    <glyph glyph-name="cent" unicode="&#xa2;" horiz-adv-x="1169" 
d="M918 528l221 -36q-49 -137 -158.5 -221.5t-251.5 -108.5v-234h-205v234q-203 32 -327.5 181.5t-124.5 363.5t124.5 363t327.5 181v234h205v-234q141 -24 247 -107.5t154 -217.5l-221 -37q-34 70 -106.5 112.5t-163.5 42.5q-145 0 -235.5 -94t-90.5 -243t90.5 -243.5
t235.5 -94.5q94 0 168.5 43.5t110.5 115.5z" />
    <glyph glyph-name="sterling" unicode="&#xa3;" horiz-adv-x="1216" 
d="M502 594v-232q0 -102 -51 -137h714v-225h-1073v225h51q113 0 113 135v234h-164v194h164v228q0 199 127 323.5t330 124.5q177 0 297.5 -96t175.5 -272l-238 -41q-77 184 -233 184q-96 0 -154.5 -61.5t-58.5 -161.5v-228h430v-194h-430z" />
    <glyph glyph-name="currency" unicode="&#xa4;" horiz-adv-x="1200" 
d="M340 297l-121 -123l-127 119l127 127q-74 113 -74 256t74 256l-127 129l127 117l121 -123q110 75 260 75q148 0 258 -75l123 123l127 -117l-129 -129q76 -116 76 -256t-76 -256l129 -127l-127 -119l-123 123q-112 -76 -258 -76q-148 0 -260 76zM600 416q110 0 180 72.5
t70 187.5t-70 187.5t-180 72.5t-180 -72.5t-70 -187.5t70 -187.5t180 -72.5z" />
    <glyph glyph-name="yen" unicode="&#xa5;" horiz-adv-x="1284" 
d="M1022 1444h262l-373 -723h234v-164h-318l-63 -123h381v-164h-389v-270h-246v270h-389v164h381l-62 123h-319v164h237l-358 723h266l350 -723h41z" />
    <glyph glyph-name="section" unicode="&#xa7;" horiz-adv-x="1167" 
d="M569 -250q-160 0 -274.5 82t-171.5 227l227 39q78 -153 223 -153q67 0 116.5 30t49.5 93q0 57 -43.5 92t-126.5 63l-123 41q-170 57 -251.5 139t-81.5 209q0 104 54 178t144 115q-118 94 -118 234q0 142 114 233.5t291 91.5q160 0 274.5 -82t171.5 -227l-227 -39
q-79 154 -223 154q-67 0 -116.5 -30t-49.5 -93q0 -57 43.5 -92.5t126.5 -63.5l123 -41q170 -57 252 -139t82 -209q0 -104 -54.5 -178t-144.5 -115q119 -95 119 -233q0 -142 -114.5 -234t-291.5 -92zM532 457l146 -49q71 19 114.5 65t43.5 107q0 64 -49 103.5t-152 74.5
l-146 49q-71 -19 -114 -64.5t-43 -107.5q0 -64 48.5 -103.5t151.5 -74.5z" />
    <glyph glyph-name="copyright" unicode="&#xa9;" horiz-adv-x="1748" 
d="M874 -20q-161 0 -302.5 57t-242 155.5t-158.5 236t-58 294.5t58 294.5t158.5 235.5t242 154.5t302.5 56.5t302.5 -56.5t242.5 -154.5t159 -235.5t58 -294.5t-58 -295t-159 -236t-242.5 -155t-302.5 -57zM874 139q126 0 236.5 44t188.5 121t122.5 185.5t44.5 233.5
q0 252 -168 417t-424 165t-423.5 -165t-167.5 -417q0 -167 76 -300.5t211 -208.5t304 -75zM887 365q-158 0 -259.5 100.5t-101.5 257.5t101.5 257.5t261.5 100.5q118 0 207 -58t125 -167l-160 -25q-21 43 -66.5 70t-101.5 27q-85 0 -139 -57t-54 -148t54 -148t139 -57
q56 0 100 25.5t66 68.5l162 -28q-37 -105 -129 -162t-205 -57z" />
    <glyph glyph-name="guillemotleft" unicode="&#xab;" horiz-adv-x="1159" 
d="M639 92h-270l-338 449l338 446h270l-336 -446zM1118 92h-272l-340 449l340 446h270l-338 -446z" />
    <glyph glyph-name="uni00AD" unicode="&#xad;" horiz-adv-x="874" 
d="M762 467h-649v221h649v-221z" />
    <glyph glyph-name="registered" unicode="&#xae;" horiz-adv-x="1165" 
d="M582 1509q211 0 351 -136.5t140 -342.5t-140 -343.5t-351 -137.5q-209 0 -349.5 138t-140.5 343t140.5 342t349.5 137zM582 662q160 0 262 103.5t102 264.5q0 160 -102.5 263.5t-261.5 103.5t-261 -103.5t-102 -263.5q0 -161 101.5 -264.5t261.5 -103.5zM791 1108
q0 -45 -27 -80.5t-72 -54.5l101 -166h-136l-86 149h-49v-149h-121v453h203q82 0 134.5 -43t52.5 -109zM604 1161h-82v-106h82q29 0 47.5 15t18.5 38t-18.5 38t-47.5 15z" />
    <glyph glyph-name="degree" unicode="&#xb0;" horiz-adv-x="774" 
d="M387 829q-142 0 -234 90t-92 230q0 138 91.5 226.5t234.5 88.5t234.5 -88.5t91.5 -226.5q0 -140 -92 -230t-234 -90zM387 993q67 0 109.5 43.5t42.5 112.5q0 67 -42 109t-110 42q-67 0 -109 -42t-42 -109q0 -69 42 -112.5t109 -43.5z" />
    <glyph glyph-name="plusminus" unicode="&#xb1;" 
d="M727 420h-205v348h-389v205h389v348h205v-348h389v-205h-389v-348zM1116 113h-983v204h983v-204z" />
    <glyph glyph-name="paragraph" unicode="&#xb6;" horiz-adv-x="1193" 
d="M629 -225h-195v813q-180 0 -291.5 118.5t-111.5 309.5t111.5 309.5t291.5 118.5h606v-1669h-194v1495h-217v-1495z" />
    <glyph glyph-name="periodcentered" unicode="&#xb7;" horiz-adv-x="491" 
d="M246 434q-62 0 -104 42t-42 102q0 62 41.5 103.5t104.5 41.5q62 0 103.5 -41.5t41.5 -103.5q0 -60 -42 -102t-103 -42z" />
    <glyph glyph-name="guillemotright" unicode="&#xbb;" horiz-adv-x="1159" 
d="M313 92h-272l340 449l-338 446h270l340 -446zM791 92h-271l336 449l-336 446h271l337 -446z" />
    <glyph glyph-name="multiply" unicode="&#xd7;" 
d="M625 557l-299 -299l-138 137l299 299l-299 299l138 137l299 -299l299 299l137 -137l-299 -299l299 -299l-137 -137z" />
    <glyph glyph-name="divide" unicode="&#xf7;" 
d="M625 940q-61 0 -102.5 41.5t-41.5 101.5t41.5 102t102.5 42q60 0 101.5 -42t41.5 -102t-41.5 -101.5t-101.5 -41.5zM1116 592h-983v205h983v-205zM625 162q-61 0 -102.5 41.5t-41.5 101.5t41.5 102t102.5 42q60 0 101.5 -42t41.5 -102t-41.5 -101.5t-101.5 -41.5z" />
    <glyph glyph-name="dotlessi" unicode="&#x131;" horiz-adv-x="522" 
d="M379 0h-236v1065h236v-1065z" />
    <glyph glyph-name="uni0237" unicode="&#x237;" horiz-adv-x="532" 
d="M45 -420h-178l-21 215h199q119 0 119 119v1151h235v-1161q0 -157 -90.5 -240.5t-263.5 -83.5z" />
    <glyph glyph-name="uni0307" unicode="&#x307;" horiz-adv-x="0" 
d="M-207 1217q-65 0 -106 40t-41 103t41.5 104t105.5 41q63 0 104.5 -41t41.5 -104t-41.5 -103t-104.5 -40z" />
    <glyph glyph-name="uni0308" unicode="&#x308;" horiz-adv-x="0" 
d="M-639 1217q-65 0 -106 40t-41 103t41.5 104t105.5 41q63 0 104 -41t41 -104t-41 -103t-104 -40zM-207 1217q-65 0 -106 40t-41 103t41.5 104t105.5 41q63 0 104.5 -41t41.5 -104t-41.5 -103t-104.5 -40z" />
    <glyph glyph-name="uni0401" unicode="&#x401;" horiz-adv-x="1230" 
d="M418 1597q-65 0 -106.5 40.5t-41.5 103.5t42 104t106 41q63 0 104 -41t41 -104t-41 -103.5t-104 -40.5zM850 1597q-65 0 -106.5 40.5t-41.5 103.5t42 104t106 41q63 0 104 -41t41 -104t-41 -103.5t-104 -40.5zM1118 0h-964v1444h944v-225h-699v-383h633v-215h-633v-396
h719v-225z" />
    <glyph glyph-name="uni0404" unicode="&#x404;" horiz-adv-x="1515" 
d="M1221 449l243 -41q-76 -193 -253.5 -310.5t-407.5 -117.5q-155 0 -289 55t-229 152.5t-149 236t-54 299.5q0 160 54.5 298.5t150 235.5t229.5 152t289 55q229 0 401 -112t248 -305l-244 -41q-56 113 -160 173t-237 60q-180 0 -305.5 -108t-159.5 -289h670v-215h-674
q28 -191 155 -306.5t312 -115.5q138 0 246 65t164 179z" />
    <glyph glyph-name="uni0406" unicode="&#x406;" horiz-adv-x="573" 
d="M410 0h-246v1444h246v-1444z" />
    <glyph glyph-name="uni0407" unicode="&#x407;" horiz-adv-x="573" 
d="M72 1597q-65 0 -106.5 40.5t-41.5 103.5t42 104t106 41q63 0 104 -41t41 -104t-41 -103.5t-104 -40.5zM504 1597q-65 0 -106.5 40.5t-41.5 103.5t42 104t106 41q63 0 104 -41t41 -104t-41 -103.5t-104 -40.5zM410 0h-246v1444h246v-1444z" />
    <glyph glyph-name="uni040E" unicode="&#x40e;" horiz-adv-x="1267" 
d="M639 1563q-153 0 -255 74.5t-120 228.5h201q22 -123 174 -123t174 123h201q-18 -154 -120 -228.5t-255 -74.5zM678 653l330 791h249l-473 -1127q-73 -174 -164 -245.5t-247 -71.5h-193l-20 225h213q71 0 110 23t64 80l-547 1116h270l375 -791h33z" />
    <glyph glyph-name="uni0410" unicode="&#x410;" horiz-adv-x="1468" 
d="M1448 0h-262l-111 309h-684l-115 -309h-256l553 1444h338zM719 1190l-244 -655h520l-235 655h-41z" />
    <glyph glyph-name="uni0411" unicode="&#x411;" horiz-adv-x="1273" 
d="M676 0h-522v1444h933v-225h-688v-297h277q227 0 371.5 -129t144.5 -330q0 -203 -144.5 -333t-371.5 -130zM399 707v-492h277q118 0 191 68.5t73 179.5q0 109 -73 176.5t-191 67.5h-277z" />
    <glyph glyph-name="uni0412" unicode="&#x412;" horiz-adv-x="1320" 
d="M979 741q117 -34 183.5 -123t66.5 -215q0 -180 -130 -291.5t-341 -111.5h-604v1444h563q208 0 338.5 -110t130.5 -283q0 -109 -55.5 -191t-151.5 -119zM717 1229h-318v-395h318q98 0 159.5 54t61.5 142q0 89 -61.5 144t-159.5 55zM399 215h359q97 0 158 56.5t61 146.5
q0 89 -61 144.5t-158 55.5h-359v-403z" />
    <glyph glyph-name="uni0413" unicode="&#x413;" horiz-adv-x="1118" 
d="M399 0h-245v1444h944v-225h-699v-1219z" />
    <glyph glyph-name="uni0414" unicode="&#x414;" horiz-adv-x="1521" 
d="M256 -369h-246v594h45q51 0 84 16.5t63 66.5t49 147t32 252l59 737h934v-1219h215v-594h-246v369h-989v-369zM401 225h629v994h-461l-41 -525q-25 -329 -127 -469z" />
    <glyph glyph-name="uni0415" unicode="&#x415;" horiz-adv-x="1230" 
d="M1118 0h-964v1444h944v-225h-699v-383h633v-215h-633v-396h719v-225z" />
    <glyph glyph-name="uni0416" unicode="&#x416;" horiz-adv-x="1978" 
d="M1978 0h-313l-502 618h-53v-618h-242v618h-53l-502 -618h-313l614 752l-563 692h293l469 -588h55v588h242v-588h55l469 588h293l-563 -692z" />
    <glyph glyph-name="uni0417" unicode="&#x417;" horiz-adv-x="1226" 
d="M885 748q109 -37 179.5 -123t70.5 -213q0 -187 -145.5 -309.5t-393.5 -122.5q-217 0 -368.5 108t-196.5 285l235 39q51 -105 128.5 -156t199.5 -51q134 0 211.5 58.5t77.5 158.5q0 93 -76 150t-229 57h-183v215h183q124 0 202 54.5t78 143.5q0 87 -74.5 142t-187.5 55
q-105 0 -181.5 -49.5t-117.5 -136.5l-231 39q64 182 202.5 277t333.5 95q221 0 362.5 -113t141.5 -290q0 -118 -60.5 -199.5t-160.5 -113.5z" />
    <glyph glyph-name="uni0418" unicode="&#x418;" horiz-adv-x="1581" 
d="M518 0h-364v1444h245v-1147h33l631 1147h364v-1444h-245v1147h-33z" />
    <glyph glyph-name="uni0419" unicode="&#x419;" horiz-adv-x="1581" 
d="M791 1563q-153 0 -255 74.5t-120 228.5h200q22 -123 175 -123q152 0 174 123h200q-12 -105 -66 -174.5t-131.5 -99t-176.5 -29.5zM518 0h-364v1444h245v-1147h33l631 1147h364v-1444h-245v1147h-33z" />
    <glyph glyph-name="uni041A" unicode="&#x41a;" horiz-adv-x="1325" 
d="M662 748l663 -748h-324l-540 618h-62v-618h-245v1444h245v-588h60l512 588h303z" />
    <glyph glyph-name="uni041B" unicode="&#x41b;" horiz-adv-x="1466" 
d="M311 434l62 1010h940v-1444h-246v1219h-465l-47 -797q-12 -212 -117.5 -325t-290.5 -113q-58 0 -104 12l-23 240q68 -7 130 -7q78 0 116.5 49t44.5 156z" />
    <glyph glyph-name="uni041C" unicode="&#x41c;" horiz-adv-x="1896" 
d="M393 0h-239v1444h385l393 -1092h33l401 1092h377v-1444h-240v1116h-33l-411 -1116h-230l-403 1116h-33v-1116z" />
    <glyph glyph-name="uni041D" unicode="&#x41d;" horiz-adv-x="1484" 
d="M1085 842v602h246v-1444h-246v616h-686v-616h-245v1444h245v-602h686z" />
    <glyph glyph-name="uni041E" unicode="&#x41e;" horiz-adv-x="1638" 
d="M819 -20q-213 0 -381.5 94.5t-262 264t-93.5 384.5q0 161 55 298.5t151.5 235t233.5 152.5t297 55t297 -55t233.5 -152.5t151.5 -235t55 -298.5q0 -215 -93.5 -384.5t-262 -264t-381.5 -94.5zM819 205q214 0 347.5 144t133.5 374q0 229 -133.5 372.5t-347.5 143.5
t-347.5 -143.5t-133.5 -372.5q0 -230 133.5 -374t347.5 -144z" />
    <glyph glyph-name="uni041F" unicode="&#x41f;" horiz-adv-x="1474" 
d="M399 0h-245v1444h1167v-1444h-246v1219h-676v-1219z" />
    <glyph glyph-name="uni0420" unicode="&#x420;" horiz-adv-x="1239" 
d="M399 0h-245v1444h512q226 0 374 -137t148 -351q0 -213 -148.5 -350t-373.5 -137h-267v-469zM399 1219v-525h267q120 0 195 72.5t75 189.5t-75 190t-195 73h-267z" />
    <glyph glyph-name="uni0421" unicode="&#x421;" horiz-adv-x="1495" 
d="M793 -20q-153 0 -285.5 55.5t-226 153t-146.5 236t-53 298.5q0 213 91 382.5t253.5 264t366.5 94.5q224 0 395.5 -111.5t245.5 -305.5l-244 -41q-53 110 -155 171.5t-234 61.5q-204 0 -333.5 -144t-129.5 -372q0 -230 128.5 -374t334.5 -144q134 0 239.5 64.5
t159.5 179.5l244 -41q-77 -197 -252.5 -312.5t-398.5 -115.5z" />
    <glyph glyph-name="uni0422" unicode="&#x422;" horiz-adv-x="1269" 
d="M758 0h-246v1219h-492v225h1229v-225h-491v-1219z" />
    <glyph glyph-name="uni0423" unicode="&#x423;" horiz-adv-x="1267" 
d="M678 653l330 791h249l-473 -1127q-73 -174 -164 -245.5t-247 -71.5h-193l-20 225h213q71 0 110 23t64 80l-547 1116h270l375 -791h33z" />
    <glyph glyph-name="uni0424" unicode="&#x424;" horiz-adv-x="1716" 
d="M975 -31h-236v166q-193 0 -345.5 76t-237 212.5t-84.5 309.5q0 262 187 429t480 167v166h236v-166q295 0 482.5 -167t187.5 -429q0 -173 -85 -309.5t-238 -212.5t-347 -76v-166zM739 356v752q-185 0 -300 -103.5t-115 -271.5q0 -166 115.5 -271.5t299.5 -105.5zM975 1108
v-752q185 0 301.5 105.5t116.5 271.5q0 168 -115.5 271.5t-302.5 103.5z" />
    <glyph glyph-name="uni0425" unicode="&#x425;" horiz-adv-x="1341" 
d="M305 0h-285l467 739l-426 705h291l303 -529h33l318 529h284l-432 -692l463 -752h-289l-338 573h-32z" />
    <glyph glyph-name="uni0426" unicode="&#x426;" horiz-adv-x="1536" 
d="M1505 -369h-245v369h-1106v1444h245v-1219h645v1219h246v-1219h215v-594z" />
    <glyph glyph-name="uni0427" unicode="&#x427;" horiz-adv-x="1310" 
d="M1157 0h-246v535q-138 -66 -299 -66q-251 0 -385.5 134t-134.5 384v457h246v-451q0 -303 299 -303q148 0 274 66v688h246v-1444z" />
    <glyph glyph-name="uni0428" unicode="&#x428;" horiz-adv-x="2027" 
d="M1874 0h-1720v1444h245v-1219h492v1219h246v-1219h491v1219h246v-1444z" />
    <glyph glyph-name="uni0429" unicode="&#x429;" horiz-adv-x="2119" 
d="M2089 -369h-246v369h-1689v1444h245v-1219h492v1219h246v-1219h491v1219h246v-1219h215v-594z" />
    <glyph glyph-name="uni042A" unicode="&#x42a;" horiz-adv-x="1443" 
d="M850 0h-502v1219h-358v225h604v-469h256q225 0 373.5 -137.5t148.5 -350.5q0 -214 -148 -350.5t-374 -136.5zM594 750v-525h256q117 0 193.5 73t76.5 189t-76.5 189.5t-193.5 73.5h-256z" />
    <glyph glyph-name="uni042B" unicode="&#x42b;" horiz-adv-x="1730" 
d="M635 0h-481v1444h245v-469h236q225 0 373.5 -137.5t148.5 -350.5q0 -214 -148 -350.5t-374 -136.5zM1577 0h-246v1444h246v-1444zM399 750v-525h236q117 0 193.5 73t76.5 189t-76.5 189.5t-193.5 73.5h-236z" />
    <glyph glyph-name="uni042C" unicode="&#x42c;" horiz-adv-x="1259" 
d="M666 0h-512v1444h245v-469h267q225 0 373.5 -137.5t148.5 -350.5q0 -214 -148 -350.5t-374 -136.5zM399 750v-525h267q117 0 193.5 73t76.5 189t-76.5 189.5t-193.5 73.5h-267z" />
    <glyph glyph-name="uni042D" unicode="&#x42d;" horiz-adv-x="1484" 
d="M700 1464q150 0 280.5 -55t223.5 -152t146 -235.5t53 -298.5q0 -161 -53.5 -299.5t-147 -236t-225.5 -152.5t-285 -55q-227 0 -401.5 117t-249.5 311l244 41q54 -115 159.5 -179.5t239.5 -64.5q182 0 305.5 115t151.5 307h-654v215h650q-32 181 -153 289t-292 108
q-128 0 -229 -60.5t-154 -172.5l-243 41q75 193 244.5 305t389.5 112z" />
    <glyph glyph-name="uni042E" unicode="&#x42e;" horiz-adv-x="2109" 
d="M1311 1464q155 0 288.5 -55t227.5 -152.5t147.5 -235t53.5 -298.5q0 -215 -91 -384.5t-254.5 -264t-371.5 -94.5q-288 0 -482.5 175.5t-228.5 460.5h-201v-616h-245v1444h245v-602h203q37 280 231 451t478 171zM1311 205q204 0 332.5 144t128.5 374q0 229 -128.5 372.5
t-332.5 143.5t-332.5 -143.5t-128.5 -372.5q0 -230 128.5 -374t332.5 -144z" />
    <glyph glyph-name="uni042F" unicode="&#x42f;" horiz-adv-x="1314" 
d="M639 1444h522v-1444h-246v530h-184l-373 -530h-286l395 553q-155 45 -247.5 161t-92.5 273q0 201 144 329t368 128zM639 756h276v463h-276q-115 0 -187.5 -64.5t-72.5 -167.5t72 -167t188 -64z" />
    <glyph glyph-name="uni0430" unicode="&#x430;" horiz-adv-x="1130" 
d="M567 1085q205 0 323 -128.5t118 -358.5v-598h-174l-50 168q-44 -76 -133 -132t-209 -56q-163 0 -266.5 95t-103.5 244q0 153 120.5 243.5t348.5 90.5h229q-8 106 -64 169t-151 63q-75 0 -130.5 -36.5t-82.5 -90.5l-217 37q39 135 161 212.5t281 77.5zM498 178
q123 0 198.5 80t75.5 211h-223q-240 0 -240 -139q0 -69 51.5 -110.5t137.5 -41.5z" />
    <glyph glyph-name="uni0431" unicode="&#x431;" horiz-adv-x="1218" 
d="M680 956q209 0 343 -135.5t134 -349.5q0 -215 -149.5 -353t-382.5 -138q-271 0 -418 190q-125 162 -125 453q0 122 18.5 222.5t63 188.5t113.5 151t173 104t240 52q104 9 141 36.5t48 97.5l206 -19q-5 -76 -28.5 -133t-57.5 -91.5t-86.5 -57t-102.5 -32.5t-118 -16
q-105 -9 -174 -34.5t-109.5 -72t-59 -104t-25.5 -143.5q123 184 356 184zM627 190q129 0 210 77.5t81 201.5q0 123 -81 199.5t-210 76.5q-131 0 -212 -76.5t-81 -199.5q0 -124 81 -201.5t212 -77.5z" />
    <glyph glyph-name="uni0432" unicode="&#x432;" horiz-adv-x="1136" 
d="M866 553q82 -26 135.5 -95.5t53.5 -162.5q0 -128 -109 -211.5t-280 -83.5h-533v1065h510q165 0 270 -80.5t105 -206.5q0 -154 -152 -225zM643 870h-274v-231h274q62 0 100.5 32t38.5 83t-39 83.5t-100 32.5zM369 195h297q69 0 111 35.5t42 93.5q0 59 -42 95t-111 36h-297
v-260z" />
    <glyph glyph-name="uni0433" unicode="&#x433;" horiz-adv-x="880" 
d="M369 0h-236v1065h727v-215h-491v-850z" />
    <glyph glyph-name="uni0434" unicode="&#x434;" horiz-adv-x="1288" 
d="M256 -317h-236v532h27q165 0 193 305l53 545h780v-850h184v-532h-235v317h-766v-317zM379 215h459v635h-328l-33 -326q-12 -124 -34.5 -196.5t-63.5 -112.5z" />
    <glyph glyph-name="uni0435" unicode="&#x435;" horiz-adv-x="1228" 
d="M1178 545q0 -30 -4 -76h-857q18 -125 103.5 -199.5t218.5 -74.5q91 0 162.5 35t111.5 94l222 -37q-58 -147 -197.5 -227t-312.5 -80q-243 0 -398 155t-155 397t155 397.5t398 155.5q241 0 397 -154t156 -386zM625 881q-106 0 -184.5 -62t-108.5 -166h590
q-30 102 -109.5 165t-187.5 63z" />
    <glyph glyph-name="uni0436" unicode="&#x436;" horiz-adv-x="1613" 
d="M1614 0h-299l-340 424h-55v-424h-226v424h-55l-340 -424h-299l453 553l-412 512h270l324 -414h59v414h226v-414h59l324 414h270l-412 -512z" />
    <glyph glyph-name="uni0437" unicode="&#x437;" horiz-adv-x="1036" 
d="M739 543q89 -27 147 -91.5t58 -158.5q0 -134 -122 -223.5t-320 -89.5q-175 0 -298.5 82t-162.5 217l217 36q35 -71 92.5 -103t149.5 -32q100 0 154.5 34.5t54.5 96.5q0 121 -209 121h-133v205h133q93 0 142.5 32t49.5 87q0 58 -51 93.5t-127 35.5t-136 -36.5t-93 -100.5
l-217 36q48 148 169 224.5t285 76.5q177 0 291.5 -86t114.5 -219q0 -88 -52.5 -151.5t-136.5 -85.5z" />
    <glyph glyph-name="uni0438" unicode="&#x438;" horiz-adv-x="1255" 
d="M467 0h-334v1065h225v-791h33l397 791h334v-1065h-225v791h-33z" />
    <glyph glyph-name="uni0439" unicode="&#x439;" horiz-adv-x="1255" 
d="M629 1194q-91 0 -162 29.5t-121 98t-61 171.5h188q18 -131 156 -131q137 0 155 131h189q-11 -103 -61 -171.5t-121 -98t-162 -29.5zM467 0h-334v1065h225v-791h33l397 791h334v-1065h-225v791h-33z" />
    <glyph glyph-name="uni043A" unicode="&#x43a;" horiz-adv-x="1103" 
d="M1104 0h-309l-369 424h-57v-424h-236v1065h236v-414h57l356 414h281l-449 -512z" />
    <glyph glyph-name="uni043B" unicode="&#x43b;" horiz-adv-x="1202" 
d="M250 397l39 668h780v-1065h-235v850h-326l-25 -449q-11 -197 -103.5 -304t-252.5 -107q-41 0 -94 6l-23 225q25 -2 88 -2q78 0 112 40.5t40 137.5z" />
    <glyph glyph-name="uni043C" unicode="&#x43c;" horiz-adv-x="1525" 
d="M358 0h-225v1065h367l245 -731h33l256 731h359v-1065h-226v791h-32l-279 -791h-199l-266 791h-33v-791z" />
    <glyph glyph-name="uni043D" unicode="&#x43d;" horiz-adv-x="1214" 
d="M846 645v420h235v-1065h-235v430h-477v-430h-236v1065h236v-420h477z" />
    <glyph glyph-name="uni043E" unicode="&#x43e;" horiz-adv-x="1282" 
d="M641 -20q-250 0 -409.5 154.5t-159.5 397.5t159.5 398t409.5 155t409.5 -155t159.5 -398t-159.5 -397.5t-409.5 -154.5zM641 195q145 0 234.5 93t89.5 244t-89.5 244.5t-234.5 93.5t-234.5 -93.5t-89.5 -244.5t89.5 -244t234.5 -93z" />
    <glyph glyph-name="uni043F" unicode="&#x43f;" horiz-adv-x="1204" 
d="M369 0h-236v1065h938v-1065h-235v850h-467v-850z" />
    <glyph glyph-name="uni0440" unicode="&#x440;" horiz-adv-x="1353" 
d="M369 -420h-236v1485h176l49 -172q66 80 168.5 136t235.5 56q228 0 374 -155.5t146 -397.5t-146 -397t-374 -155q-128 0 -228 52.5t-165 129.5v-582zM705 190q147 0 239 95.5t92 246.5t-92 246.5t-239 95.5q-149 0 -242.5 -95.5t-93.5 -246.5t93.5 -246.5t242.5 -95.5z
" />
    <glyph glyph-name="uni0441" unicode="&#x441;" horiz-adv-x="1171" 
d="M627 -20q-244 0 -399.5 155t-155.5 397t155.5 397.5t399.5 155.5q175 0 312 -86.5t194 -246.5l-222 -37q-34 70 -106.5 112.5t-163.5 42.5q-143 0 -233.5 -94.5t-90.5 -243.5t90.5 -243t233.5 -94q94 0 168.5 43.5t110.5 115.5l221 -37q-58 -162 -199 -249.5t-315 -87.5z
" />
    <glyph glyph-name="uni0442" unicode="&#x442;" horiz-adv-x="1034" 
d="M635 0h-236v850h-368v215h973v-215h-369v-850z" />
    <glyph glyph-name="uni0443" unicode="&#x443;" horiz-adv-x="1171" 
d="M618 297l273 768h239l-436 -1198q-55 -151 -142 -219t-233 -68h-161l-21 215h199q58 0 90 25t55 90l13 33l-474 1122h252l314 -768h32z" />
    <glyph glyph-name="uni0444" unicode="&#x444;" horiz-adv-x="1499" 
d="M862 -420h-225v416q-249 0 -407 151t-158 388q0 236 158 386t407 150v373h225v-373q249 0 407 -150t158 -386q0 -237 -158 -388t-407 -151v-416zM637 207v653q-141 0 -230.5 -90.5t-89.5 -234.5q0 -146 89.5 -237t230.5 -91zM862 860v-653q141 0 230.5 91t89.5 237
q0 144 -89.5 234.5t-230.5 90.5z" />
    <glyph glyph-name="uni0445" unicode="&#x445;" horiz-adv-x="1062" 
d="M272 0h-266l338 545l-299 520h266l199 -358h39l209 358h260l-299 -506l338 -559h-275l-227 403h-39z" />
    <glyph glyph-name="uni0446" unicode="&#x446;" horiz-adv-x="1269" 
d="M1239 -317h-235v317h-871v1065h236v-850h450v850h236v-850h184v-532z" />
    <glyph glyph-name="uni0447" unicode="&#x447;" horiz-adv-x="1064" 
d="M932 0h-236v371q-106 -47 -239 -47q-197 0 -301.5 110.5t-104.5 315.5v315h236v-315q0 -107 51 -162.5t151 -55.5q125 0 207 48v485h236v-1065z" />
    <glyph glyph-name="uni0448" unicode="&#x448;" horiz-adv-x="1751" 
d="M1618 0h-1485v1065h236v-850h389v850h235v-850h389v850h236v-1065z" />
    <glyph glyph-name="uni0449" unicode="&#x449;" horiz-adv-x="1832" 
d="M1802 -317h-235v317h-1434v1065h236v-850h389v850h235v-850h389v850h236v-850h184v-532z" />
    <glyph glyph-name="uni044A" unicode="&#x44a;" horiz-adv-x="1214" 
d="M729 0h-422v860h-307v205h543v-303h186q192 0 313 -106.5t121 -274.5q0 -167 -121.5 -274t-312.5 -107zM543 557v-352h186q88 0 143.5 49t55.5 127t-55.5 127t-143.5 49h-186z" />
    <glyph glyph-name="uni044B" unicode="&#x44b;" horiz-adv-x="1464" 
d="M535 0h-402v1065h236v-303h166q192 0 313 -106.5t121 -274.5q0 -167 -121.5 -274t-312.5 -107zM1331 0h-235v1065h235v-1065zM369 557v-352h166q88 0 143 49t55 127t-55 127t-143 49h-166z" />
    <glyph glyph-name="uni044C" unicode="&#x44c;" horiz-adv-x="1050" 
d="M565 0h-432v1065h236v-303h196q192 0 313 -106.5t121 -274.5q0 -167 -121.5 -274t-312.5 -107zM369 557v-352h196q88 0 143.5 49t55.5 127t-55.5 127t-143.5 49h-196z" />
    <glyph glyph-name="uni044D" unicode="&#x44d;" horiz-adv-x="1175" 
d="M557 1085q239 0 393 -155.5t154 -397.5t-155 -397t-398 -155q-172 0 -311 84.5t-199 242.5l221 37q38 -67 111 -108t164 -41q117 0 201 64.5t112 172.5h-438v205h438q-30 107 -111.5 170t-195.5 63q-86 0 -156 -39.5t-106 -105.5l-222 37q60 156 194 239.5t304 83.5z" />
    <glyph glyph-name="uni044E" unicode="&#x44e;" horiz-adv-x="1691" 
d="M1061 1085q246 0 402.5 -155t156.5 -398t-156.5 -397.5t-402.5 -154.5q-218 0 -368.5 124t-182.5 326h-141v-430h-236v1065h236v-420h143q36 198 185 319t364 121zM1061 195q140 0 226.5 93t86.5 244t-86.5 244.5t-226.5 93.5t-226.5 -93.5t-86.5 -244.5t86.5 -244
t226.5 -93z" />
    <glyph glyph-name="uni044F" unicode="&#x44f;" horiz-adv-x="1122" 
d="M516 1065h473v-1065h-235v342h-189l-225 -342h-268l254 379q-104 42 -164 127.5t-60 198.5q0 158 116 259t298 101zM516 547h238v313h-238q-79 0 -128.5 -43t-49.5 -112q0 -71 49.5 -114.5t128.5 -43.5z" />
    <glyph glyph-name="uni0451" unicode="&#x451;" horiz-adv-x="1228" 
d="M403 1217q-65 0 -106 40t-41 103t41.5 104t105.5 41q63 0 104.5 -41t41.5 -104t-41.5 -103t-104.5 -40zM836 1217q-65 0 -106.5 40t-41.5 103t42 104t106 41q63 0 104 -41t41 -104t-41 -103t-104 -40zM1178 545q0 -30 -4 -76h-857q18 -125 103.5 -199.5t218.5 -74.5
q91 0 162.5 35t111.5 94l222 -37q-58 -147 -197.5 -227t-312.5 -80q-243 0 -398 155t-155 397t155 397.5t398 155.5q241 0 397 -154t156 -386zM625 881q-106 0 -184.5 -62t-108.5 -166h590q-30 102 -109.5 165t-187.5 63z" />
    <glyph glyph-name="uni0454" unicode="&#x454;" horiz-adv-x="1179" 
d="M928 354l221 -37q-39 -108 -119.5 -185.5t-182.5 -114.5t-216 -37q-246 0 -402.5 155t-156.5 397t156.5 397.5t402.5 155.5q177 0 315 -86.5t195 -246.5l-221 -37q-34 70 -109 112.5t-170 42.5q-118 0 -202 -63.5t-113 -171.5h458v-205h-458q29 -108 113 -171.5
t202 -63.5q98 0 174.5 43.5t112.5 115.5z" />
    <glyph glyph-name="uni0456" unicode="&#x456;" horiz-adv-x="522" 
d="M262 1217q-65 0 -106 40t-41 103t41.5 104t105.5 41q63 0 104.5 -41t41.5 -104t-41.5 -103t-104.5 -40zM379 0h-236v1065h236v-1065z" />
    <glyph glyph-name="uni0457" unicode="&#x457;" horiz-adv-x="522" 
d="M94 1217q-60 0 -99.5 40t-39.5 103t39.5 104t99.5 41t98.5 -41t38.5 -104t-38.5 -103t-98.5 -40zM432 1217q-60 0 -99.5 40t-39.5 103t39.5 104t99.5 41t98.5 -41t38.5 -104t-38.5 -103t-98.5 -40zM379 0h-236v1065h236v-1065z" />
    <glyph glyph-name="uni045E" unicode="&#x45e;" horiz-adv-x="1171" 
d="M588 1194q-91 0 -162 29.5t-121 98t-61 171.5h188q18 -131 156 -131q137 0 155 131h189q-11 -103 -61 -171.5t-121 -98t-162 -29.5zM618 297l273 768h239l-436 -1198q-55 -151 -142 -219t-233 -68h-161l-21 215h199q58 0 90 25t55 90l13 33l-474 1122h252l314 -768h32z
" />
    <glyph glyph-name="uni0490" unicode="&#x490;" horiz-adv-x="1118" 
d="M862 1444v368h236v-593h-699v-1219h-245v1444h708z" />
    <glyph glyph-name="uni0491" unicode="&#x491;" horiz-adv-x="880" 
d="M635 1065v317h225v-532h-491v-850h-236v1065h502z" />
    <glyph glyph-name="endash" unicode="&#x2013;" horiz-adv-x="1220" 
d="M1128 475h-1036v205h1036v-205z" />
    <glyph glyph-name="emdash" unicode="&#x2014;" horiz-adv-x="1720" 
d="M1628 475h-1536v205h1536v-205z" />
    <glyph glyph-name="quoteleft" unicode="&#x2018;" horiz-adv-x="485" 
d="M311 958h-219l123 486h178z" />
    <glyph glyph-name="quoteright" unicode="&#x2019;" horiz-adv-x="485" 
d="M270 958h-178l82 486h219z" />
    <glyph glyph-name="quotedblleft" unicode="&#x201c;" horiz-adv-x="823" 
d="M311 958h-219l123 486h178zM649 958h-219l123 486h178z" />
    <glyph glyph-name="quotedblright" unicode="&#x201d;" horiz-adv-x="823" 
d="M270 958h-178l82 486h219zM608 958h-178l82 486h219z" />
    <glyph glyph-name="bullet" unicode="&#x2022;" horiz-adv-x="737" 
d="M369 322q-108 0 -182 74t-74 182t74 182t182 74q107 0 181.5 -74.5t74.5 -181.5t-74.5 -181.5t-181.5 -74.5z" />
    <glyph glyph-name="ellipsis" unicode="&#x2026;" horiz-adv-x="1548" 
d="M279 -20q-63 0 -104.5 41.5t-41.5 101.5q0 62 41.5 103.5t104.5 41.5q61 0 103 -42t42 -103q0 -60 -42 -101.5t-103 -41.5zM774 -20q-62 0 -103.5 41t-41.5 102q0 62 41 103.5t104 41.5q62 0 104 -42t42 -103q0 -60 -42.5 -101.5t-103.5 -41.5zM1270 -20
q-63 0 -104.5 41.5t-41.5 101.5q0 62 41.5 103.5t104.5 41.5q62 0 103.5 -42t41.5 -103q0 -60 -42 -101.5t-103 -41.5z" />
    <glyph glyph-name="guilsinglleft" unicode="&#x2039;" horiz-adv-x="708" 
d="M668 92h-279l-358 449l358 446h279l-359 -446z" />
    <glyph glyph-name="guilsinglright" unicode="&#x203a;" horiz-adv-x="718" 
d="M330 92h-289l358 449l-358 446h289l358 -446z" />
    <glyph glyph-name="Euro" unicode="&#x20ac;" horiz-adv-x="1503" 
d="M1221 408l231 -39q-61 -177 -215.5 -283t-362.5 -106q-240 0 -404 134.5t-222 366.5h-197v164h170q-2 25 -2 78v45h-168v164h189q52 245 217 388.5t409 143.5q200 0 355.5 -102t224.5 -277l-242 -41q-52 94 -140 144.5t-198 50.5q-144 0 -237 -81t-129 -226h610l-59 -164
h-576v-45q0 -28 4 -78h527l-60 -164h-436q44 -130 137 -203t227 -73q121 0 211.5 53.5t135.5 149.5z" />
    <glyph glyph-name="uni20B4" unicode="&#x20b4;" horiz-adv-x="1292" 
d="M1059 942h141v-164h-1108v164h670q96 50 96 139q0 74 -57 116t-144 42q-155 0 -239 -145l-238 41q61 154 187 241.5t297 87.5q190 0 318 -99.5t128 -260.5q0 -101 -51 -162zM215 492h-123v163h1108v-163h-700q-78 -55 -78 -134q0 -72 56.5 -112.5t168.5 -40.5
q183 0 285 133l225 -39q-66 -149 -204 -234t-316 -85q-128 0 -232 40t-169.5 123t-65.5 195q0 93 45 154z" />
    <glyph glyph-name="uni20B8" unicode="&#x20b8;" horiz-adv-x="1228" 
d="M1208 1280h-1188v164h1188v-164zM737 0h-245v922h-472v225h1188v-225h-471v-922z" />
    <glyph glyph-name="uni20BD" unicode="&#x20bd;" horiz-adv-x="1290" 
d="M727 551h-256v-123h471v-164h-471v-264h-246v264h-174v164h174v123h-174v174h174v719h502q221 0 366.5 -130t145.5 -325q0 -192 -143.5 -315t-368.5 -123zM727 1219h-256v-494h256q115 0 187.5 69.5t72.5 178.5q0 108 -72.5 177t-187.5 69z" />
    <glyph glyph-name="uni20BF" unicode="&#x20bf;" horiz-adv-x="1280" 
d="M1188 422q0 -138 -85.5 -236.5t-232.5 -130.5v-260h-184v246h-164v-246h-184v246h-184v1362h184v246h184v-246h164v246h184v-271q127 -40 201 -132.5t74 -215.5q0 -101 -53.5 -177.5t-147.5 -113.5q114 -31 179 -115t65 -202zM399 827h293q92 0 148.5 50.5t56.5 130.5
t-56.5 130t-148.5 50h-293v-361zM399 256h334q91 0 147 51.5t56 134.5q0 80 -56.5 130.5t-146.5 50.5h-334v-367z" />
    <glyph glyph-name="uni2116" unicode="&#x2116;" horiz-adv-x="2416" 
d="M1948 768q-155 0 -256 98.5t-101 249.5t101 248.5t256 97.5t255.5 -97.5t100.5 -248.5t-100.5 -249.5t-255.5 -98.5zM393 0h-239v1444h370l631 -1147h33v1147h239v-1444h-370l-631 1147h-33v-1147zM1948 942q76 0 124 48.5t48 125.5q0 76 -48 124t-124 48t-124 -48
t-48 -124q0 -77 48 -125.5t124 -48.5zM2281 492h-669v163h669v-163z" />
    <glyph glyph-name="trademark" unicode="&#x2122;" horiz-adv-x="1615" 
d="M446 799h-174v491h-221v154h615v-154h-220v-491zM901 799h-164v645h232l137 -377h18l140 377h229v-645h-164v379h-18l-146 -379h-104l-141 379h-19v-379z" />
    <glyph glyph-name="arrowleft" unicode="&#x2190;" horiz-adv-x="1972" 
d="M684 455l-131 -131l-344 342v127l344 344l131 -131l-154 -154l2 -18h1231v-207h-1231l-2 -21z" />
    <glyph glyph-name="arrowup" unicode="&#x2191;" horiz-adv-x="1378" 
d="M793 0h-207v1180l-21 2l-151 -154l-131 131l344 344h127l342 -344l-131 -131l-152 154l-20 -2v-1180z" />
    <glyph glyph-name="arrowright" unicode="&#x2192;" horiz-adv-x="1972" 
d="M1763 666l-344 -342l-131 131l154 151l-2 21h-1231v207h1231l2 18l-154 154l131 131l344 -344v-127z" />
    <glyph glyph-name="arrowdown" unicode="&#x2193;" horiz-adv-x="1378" 
d="M754 -59h-127l-344 344l131 131l151 -154l21 2v1180h207v-1180l20 -2l152 154l131 -131z" />
    <glyph glyph-name="arrowboth" unicode="&#x2194;" horiz-adv-x="2095" 
d="M682 455l-129 -127l-344 342v118l344 345l129 -129l-158 -156v-21h1049v21l-160 156l129 129l344 -345v-118l-344 -342l-129 127l160 155v21h-1049v-21z" />
    <glyph glyph-name="arrowupdn" unicode="&#x2195;" horiz-adv-x="1378" 
d="M743 -74h-116l-344 346l129 127l155 -157h19v948h-19l-155 -160l-129 129l344 344h116l353 -352l-129 -127l-162 166h-21v-948h21l162 166l129 -129z" />
    <glyph glyph-name="uni2196" unicode="&#x2196;" horiz-adv-x="1785" 
d="M1522 266l-146 -145l-870 872l-17 -14v-219h-184v487l90 90h488v-184h-217l-15 -14z" />
    <glyph glyph-name="uni2197" unicode="&#x2197;" horiz-adv-x="1785" 
d="M1280 993l-870 -872l-146 145l871 873l-13 14h-219v184h488l90 -90v-487h-185v219z" />
    <glyph glyph-name="uni2198" unicode="&#x2198;" horiz-adv-x="1785" 
d="M1391 121h-488v184h219l13 17l-871 870l146 145l870 -872l16 14v219h185v-487z" />
    <glyph glyph-name="uni2199" unicode="&#x2199;" horiz-adv-x="1785" 
d="M883 121h-488l-90 90v487h184v-219l17 -14l870 872l146 -145l-871 -870l15 -17h217v-184z" />
    <glyph glyph-name="minus" unicode="&#x2212;" 
d="M1116 592h-983v205h983v-205z" />
    <glyph glyph-name="approxequal" unicode="&#x2248;" 
d="M823 725q-73 0 -133.5 22.5t-94 49t-74.5 49t-79 22.5q-57 0 -91 -34.5t-34 -98.5h-211q0 162 85 250t235 88q73 0 133.5 -22.5t94 -49t74 -49t77.5 -22.5q59 0 93 34t34 99h211q0 -162 -85.5 -250t-234.5 -88zM823 315q-73 0 -133.5 22.5t-94 49.5t-74.5 49.5t-79 22.5
q-57 0 -91 -34.5t-34 -98.5h-211q0 162 85 250t235 88q60 0 110 -15t84 -36t63 -42t60 -36t62 -15q59 0 93 34t34 99h211q0 -162 -85.5 -250t-234.5 -88z" />
    <glyph glyph-name="notequal" unicode="&#x2260;" 
d="M1116 1001v-204h-344l-90 -205h434v-205h-524l-80 -184h-205l80 184h-254v205h344l90 205h-434v204h524l80 185h205l-80 -185h254z" />
    <glyph glyph-name="lessequal" unicode="&#x2264;" 
d="M1096 627v-217l-942 315v246l942 315v-219l-701 -211v-16zM1096 317v-204h-942v204h942z" />
    <glyph glyph-name="greaterequal" unicode="&#x2265;" 
d="M1096 725l-942 -315v217l700 213v16l-700 211v219l942 -315v-246zM1096 113h-942v204h942v-204z" />
    <glyph glyph-name="uniF8FF" unicode="&#xf8ff;" horiz-adv-x="1669" 
d="M1057 0h-445q-104 0 -177 8.5t-131 31.5t-93 58.5t-58 93.5t-31.5 131t-8.5 177v444q0 104 8.5 177t31.5 131t58 93.5t93 58.5t131 31.5t177 8.5h445q104 0 177 -8.5t131 -31.5t93 -58.5t58 -93.5t31.5 -131t8.5 -177v-444q0 -104 -8.5 -177t-31.5 -131t-58 -93.5
t-93 -58.5t-131 -31.5t-177 -8.5zM1174 414h104q39 0 39 28q0 11 -2 17q-15 44 -88 123q-11 12 -72 73q-12 12 -12 25q0 12 33 57q59 82 89.5 140.5t30.5 80.5q0 27 -34 27h-105q-33 0 -45 -29q-61 -134 -129 -215q-27 -32 -49 -32q-16 0 -16 30v209q0 39 -31 39h-166
q-10 0 -17.5 -7.5t-7.5 -16.5q0 -10 10 -21.5t20.5 -31.5t10.5 -50v-155q0 -25 -4 -32t-14 -7q-28 0 -82.5 85t-93.5 195q-8 23 -17 32t-28 9h-107q-37 0 -37 -31q0 -18 13 -60.5t53.5 -123.5t99.5 -164q65 -92 151 -142t171 -50q47 0 61.5 9t14.5 30v96q0 22 5 28.5t21 6.5
q50 0 158 -121q26 -30 40 -40.5t32 -10.5z" />
    <glyph glyph-name="brevecombcy" horiz-adv-x="0" 
d="M-406 1194q-91 0 -162 29.5t-121 98t-61 171.5h189q18 -131 155 -131q138 0 156 131h189q-11 -103 -61.5 -171.5t-121.5 -98t-162 -29.5z" />
    <glyph glyph-name="uni0308.alt" horiz-adv-x="0" 
d="M-537 1217q-60 0 -99.5 40t-39.5 103t39.5 104t99.5 41t99 -41t39 -104t-39 -103t-99 -40zM-199 1217q-60 0 -99.5 40t-39.5 103t39.5 104t99.5 41t99 -41t39 -104t-39 -103t-99 -40z" />
    <glyph glyph-name="brevecombcy.case" horiz-adv-x="0" 
d="M-436 1563q-153 0 -255 74.5t-120 228.5h201q22 -123 174 -123t174 123h201q-18 -154 -120 -228.5t-255 -74.5z" />
    <glyph glyph-name="parenleft.case" horiz-adv-x="679" 
d="M649 -256h-237q-148 192 -234 437t-86 521q0 277 86 521t234 436h237q-143 -191 -227 -436.5t-84 -520.5q0 -274 84 -521t227 -437z" />
    <glyph glyph-name="parenright.case" horiz-adv-x="679" 
d="M268 -256h-237q143 190 227 437t84 521q0 275 -84 520.5t-227 436.5h237q148 -192 234 -436t86 -521q0 -276 -86 -521t-234 -437z" />
    <glyph glyph-name="hyphen.case" horiz-adv-x="874" 
d="M762 600h-649v221h649v-221z" />
    <glyph glyph-name="at.case" horiz-adv-x="1912" 
d="M958 -106q-183 0 -341.5 63t-268.5 173t-172.5 262t-62.5 325q0 172 65.5 323t178.5 259t272.5 170.5t341.5 62.5q235 0 427.5 -100t302 -275t109.5 -389q0 -207 -99 -340t-253 -133q-82 0 -148 41.5t-93 130.5q-100 -172 -306 -172q-171 0 -280 113.5t-109 291.5
t109.5 292t279.5 114q177 0 275 -129l26 108h150v-475q0 -75 30.5 -118t84.5 -43q70 0 112.5 79.5t42.5 208.5q0 181 -85.5 325.5t-237.5 225t-342 80.5q-192 0 -345 -83t-239 -230.5t-86 -331.5q0 -189 83.5 -340.5t237 -238.5t349.5 -87q258 0 397 109l221 -37
q-98 -107 -260.5 -171t-366.5 -64zM950 469q101 0 164.5 64t63.5 167t-63.5 167.5t-164.5 64.5q-100 0 -161.5 -64.5t-61.5 -167.5t61.5 -167t161.5 -64z" />
    <glyph glyph-name="bracketleft.case" horiz-adv-x="665" 
d="M635 -256h-481v1915h481v-215h-250v-1485h250v-215z" />
    <glyph glyph-name="bracketright.case" horiz-adv-x="665" 
d="M512 -256h-481v215h250v1485h-250v215h481v-1915z" />
    <glyph glyph-name="braceleft.case" horiz-adv-x="702" 
d="M672 -256h-111q-167 0 -252.5 80.5t-85.5 238.5v390q0 72 -35.5 106.5t-126.5 34.5v215q91 0 126.5 34.5t35.5 104.5v391q0 158 85.5 239t252.5 81h111v-215h-111q-54 0 -78 -24.5t-24 -80.5v-391q0 -107 -44.5 -158t-133.5 -71v-33q90 -20 134 -72t44 -161v-390
q0 -55 24 -79.5t78 -24.5h111v-215z" />
    <glyph glyph-name="braceright.case" horiz-adv-x="702" 
d="M141 -256h-110v215h110q54 0 78.5 24.5t24.5 79.5v390q0 109 44 161t134 72v33q-89 20 -133.5 71t-44.5 158v391q0 55 -24.5 80t-78.5 25h-110v215h110q167 0 252.5 -81t85.5 -239v-391q0 -70 35.5 -104.5t126.5 -34.5v-215q-91 0 -126.5 -34.5t-35.5 -106.5v-390
q0 -158 -85.5 -238.5t-252.5 -80.5z" />
    <glyph glyph-name="guillemotleft.case" horiz-adv-x="1159" 
d="M639 225h-270l-338 449l338 446h270l-336 -446zM1118 225h-272l-340 449l340 446h270l-338 -446z" />
    <glyph glyph-name="periodcentered.case" horiz-adv-x="491" 
d="M246 567q-62 0 -104 41.5t-42 102.5q0 62 41.5 103.5t104.5 41.5q62 0 103.5 -42t41.5 -103q0 -60 -42 -102t-103 -42z" />
    <glyph glyph-name="guillemotright.case" horiz-adv-x="1159" 
d="M313 225h-272l340 449l-338 446h270l340 -446zM791 225h-271l336 449l-336 446h271l337 -446z" />
    <glyph glyph-name="uni0308.case" horiz-adv-x="0" 
d="M-639 1597q-64 0 -105.5 40.5t-41.5 103.5t41.5 104t105.5 41q63 0 104 -41t41 -104t-41 -103.5t-104 -40.5zM-207 1597q-64 0 -105.5 40.5t-41.5 103.5t41.5 104t105.5 41q63 0 104.5 -41t41.5 -104t-41.5 -103.5t-104.5 -40.5z" />
    <glyph glyph-name="endash.case" horiz-adv-x="1220" 
d="M1128 608h-1036v205h1036v-205z" />
    <glyph glyph-name="emdash.case" horiz-adv-x="1720" 
d="M1628 608h-1536v205h1536v-205z" />
    <glyph glyph-name="bullet.case" horiz-adv-x="737" 
d="M369 455q-108 0 -182 74t-74 182t74 182t182 74q107 0 181.5 -74.5t74.5 -181.5t-74.5 -181.5t-181.5 -74.5z" />
    <glyph glyph-name="guilsinglleft.case" horiz-adv-x="708" 
d="M668 225h-279l-358 449l358 446h279l-359 -446z" />
    <glyph glyph-name="guilsinglright.case" horiz-adv-x="718" 
d="M330 225h-289l358 449l-358 446h289l358 -446z" />
    </font>
</defs>
</svg>
